<?xml version="1.0" encoding="utf-8"?>
<!-- Generator: Adobe Illustrator 26.2.1, SVG Export Plug-In . SVG Version: 6.00 Build 0)  -->
<svg version="1.1" id="Layer_1" xmlns="http://www.w3.org/2000/svg" xmlns:xlink="http://www.w3.org/1999/xlink" x="0px" y="0px"
	 viewBox="0 0 659.4 486" style="enable-background:new 0 0 659.4 486;" xml:space="preserve">
<style type="text/css">
	.st0{opacity:0.35;fill:#8991DC;enable-background:new    ;}
	.st1{fill:none;stroke:#57868F;stroke-miterlimit:10;stroke-dasharray:5,3;}
	.st2{fill:none;stroke:#3E4649;stroke-miterlimit:10;}
	.st3{fill:none;stroke:#3E4649;stroke-miterlimit:10;stroke-dasharray:5,3;}
	.st4{fill:#3E4649;}
	.st5{font-family:'MyriadPro-Regular';}
	.st6{font-size:12px;}
</style>
<rect class="st0" width="659.4" height="487.2"/>
<g>
	<g>
		<g>
			<line class="st1" x1="386.8" y1="102.8" x2="386.8" y2="116"/>
			<line class="st1" x1="326.9" y1="102.8" x2="326.9" y2="116"/>
			<line class="st1" x1="267.3" y1="103.2" x2="267.3" y2="116.3"/>
			<line class="st1" x1="207.4" y1="103.2" x2="207.4" y2="116.3"/>
			<line class="st1" x1="147.5" y1="103.2" x2="147.5" y2="116.3"/>
			<line class="st1" x1="87.7" y1="103.2" x2="87.7" y2="116.3"/>
			<line class="st1" x1="446.6" y1="102.8" x2="446.6" y2="116.7"/>
			<line class="st1" x1="506.5" y1="102.8" x2="506.5" y2="116"/>
			<line class="st1" x1="566.2" y1="102.8" x2="566.2" y2="116"/>
		</g>
		<g>
			<line class="st2" x1="37" y1="109.9" x2="39.5" y2="109.9"/>
			<line class="st3" x1="42.5" y1="109.9" x2="608.8" y2="109.3"/>
			<line class="st2" x1="610.3" y1="109.3" x2="612.8" y2="109.3"/>
			<polygon class="st4" points="47.1,102.8 47.1,117.2 34.7,109.9 			"/>
			<polygon class="st4" points="602.1,116.7 602.1,102.3 614.5,109.6 			"/>
		</g>
	</g>
	<text transform="matrix(1 0 0 1 114.5654 120.8478)" class="st5 st6">1</text>
	<text transform="matrix(1 0 0 1 174.0435 120.8478)" class="st5 st6">2</text>
	<text transform="matrix(1 0 0 1 231.9565 120.8478)" class="st5 st6">3</text>
	<text transform="matrix(1 0 0 1 291.9565 120.8478)" class="st5 st6">4</text>
	<text transform="matrix(1 0 0 1 351.9565 120.8478)" class="st5 st6">5</text>
	<text transform="matrix(1 0 0 1 411.9565 120.8478)" class="st5 st6">6</text>
	<text transform="matrix(1 0 0 1 475.6089 120.8478)" class="st5 st6">7</text>
	<text transform="matrix(1 0 0 1 533.522 120.8478)" class="st5 st6">8</text>
</g>
<g>
	<g>
		<g>
			<line class="st1" x1="386.8" y1="215.6" x2="386.8" y2="228.7"/>
			<line class="st1" x1="326.9" y1="215.6" x2="326.9" y2="228.7"/>
			<line class="st1" x1="267.3" y1="215.9" x2="267.3" y2="229.1"/>
			<line class="st1" x1="207.4" y1="215.9" x2="207.4" y2="229.1"/>
			<line class="st1" x1="147.5" y1="215.9" x2="147.5" y2="229.1"/>
			<line class="st1" x1="87.7" y1="215.9" x2="87.7" y2="229.1"/>
			<line class="st1" x1="446.6" y1="215.6" x2="446.6" y2="229.5"/>
			<line class="st1" x1="506.5" y1="215.6" x2="506.5" y2="228.7"/>
			<line class="st1" x1="566.2" y1="215.6" x2="566.2" y2="228.7"/>
		</g>
		<g>
			<line class="st2" x1="36.1" y1="222.6" x2="38.6" y2="222.6"/>
			<line class="st3" x1="41.6" y1="222.6" x2="607.9" y2="222.1"/>
			<line class="st2" x1="609.4" y1="222" x2="611.9" y2="222"/>
			<polygon class="st4" points="46.2,215.6 46.2,229.9 33.8,222.7 			"/>
			<polygon class="st4" points="601.2,229.5 601.2,215.1 613.6,222.3 			"/>
		</g>
	</g>
	<text transform="matrix(1 0 0 1 114.5654 234.8646)" class="st5 st6">1</text>
	<text transform="matrix(1 0 0 1 174.0435 234.8646)" class="st5 st6">2</text>
	<text transform="matrix(1 0 0 1 231.9565 234.8646)" class="st5 st6">3</text>
	<text transform="matrix(1 0 0 1 291.9565 234.8646)" class="st5 st6">4</text>
	<text transform="matrix(1 0 0 1 351.9565 234.8646)" class="st5 st6">5</text>
	<text transform="matrix(1 0 0 1 411.9565 234.8646)" class="st5 st6">6</text>
	<text transform="matrix(1 0 0 1 475.6089 234.8646)" class="st5 st6">7</text>
	<text transform="matrix(1 0 0 1 533.522 234.8646)" class="st5 st6">8</text>
</g>
<g>
	<g>
		<g>
			<line class="st1" x1="386.8" y1="324.8" x2="386.8" y2="339"/>
			<line class="st1" x1="326.9" y1="324.8" x2="326.9" y2="339"/>
			<line class="st1" x1="267.3" y1="325.2" x2="267.3" y2="339.4"/>
			<line class="st1" x1="207.4" y1="325.2" x2="207.4" y2="339.4"/>
			<line class="st1" x1="147.5" y1="325.2" x2="147.5" y2="339.4"/>
			<line class="st1" x1="87.7" y1="325.2" x2="87.7" y2="339.4"/>
			<line class="st1" x1="446.6" y1="324.8" x2="446.6" y2="339.8"/>
			<line class="st1" x1="506.5" y1="324.8" x2="506.5" y2="339"/>
			<line class="st1" x1="566.2" y1="324.8" x2="566.2" y2="339"/>
		</g>
		<g>
			<line class="st2" x1="36.1" y1="332.9" x2="38.6" y2="332.9"/>
			<line class="st3" x1="41.6" y1="332.9" x2="607.9" y2="332.4"/>
			<line class="st2" x1="609.4" y1="332.4" x2="611.9" y2="332.4"/>
			<polygon class="st4" points="46.2,325.9 46.2,340.3 33.8,333 			"/>
			<polygon class="st4" points="601.2,339.8 601.2,325.4 613.6,332.7 			"/>
		</g>
	</g>
	<text transform="matrix(1 0 0 1 114.5654 343.9083)" class="st5 st6">1</text>
	<text transform="matrix(1 0 0 1 174.0435 343.9083)" class="st5 st6">2</text>
	<text transform="matrix(1 0 0 1 231.9565 343.9083)" class="st5 st6">3</text>
	<text transform="matrix(1 0 0 1 291.9565 343.9083)" class="st5 st6">4</text>
	<text transform="matrix(1 0 0 1 351.9565 343.9083)" class="st5 st6">5</text>
	<text transform="matrix(1 0 0 1 411.9565 343.9083)" class="st5 st6">6</text>
	<text transform="matrix(1 0 0 1 475.6089 343.9083)" class="st5 st6">7</text>
	<text transform="matrix(1 0 0 1 533.522 343.9083)" class="st5 st6">8</text>
</g>
<g>
	<g>
		<g>
			<line class="st1" x1="386.8" y1="435.2" x2="386.8" y2="449.4"/>
			<line class="st1" x1="326.9" y1="435.2" x2="326.9" y2="449.4"/>
			<line class="st1" x1="267.3" y1="435.7" x2="267.3" y2="449.8"/>
			<line class="st1" x1="207.4" y1="435.7" x2="207.4" y2="449.8"/>
			<line class="st1" x1="147.5" y1="435.7" x2="147.5" y2="449.8"/>
			<line class="st1" x1="87.7" y1="435.7" x2="87.7" y2="449.8"/>
			<line class="st1" x1="446.6" y1="435.2" x2="446.6" y2="450.2"/>
			<line class="st1" x1="506.5" y1="435.2" x2="506.5" y2="449.4"/>
			<line class="st1" x1="566.2" y1="435.2" x2="566.2" y2="449.4"/>
		</g>
		<g>
			<line class="st2" x1="36.1" y1="443.4" x2="38.6" y2="443.4"/>
			<line class="st3" x1="41.6" y1="443.4" x2="607.9" y2="442.8"/>
			<line class="st2" x1="609.4" y1="442.8" x2="611.9" y2="442.8"/>
			<polygon class="st4" points="46.2,436.4 46.2,450.7 33.8,443.5 			"/>
			<polygon class="st4" points="601.2,450.2 601.2,435.8 613.6,443.1 			"/>
		</g>
	</g>
	<text transform="matrix(1 0 0 1 114.5654 454.3683)" class="st5 st6">1</text>
	<text transform="matrix(1 0 0 1 174.0435 454.3683)" class="st5 st6">2</text>
	<text transform="matrix(1 0 0 1 231.9565 454.3683)" class="st5 st6">3</text>
	<text transform="matrix(1 0 0 1 291.9565 454.3683)" class="st5 st6">4</text>
	<text transform="matrix(1 0 0 1 351.9565 454.3683)" class="st5 st6">5</text>
	<text transform="matrix(1 0 0 1 411.9565 454.3683)" class="st5 st6">6</text>
	<text transform="matrix(1 0 0 1 475.6089 454.3683)" class="st5 st6">7</text>
	<text transform="matrix(1 0 0 1 533.522 454.3683)" class="st5 st6">8</text>
</g>
</svg>
