<svg id="Layer_1" data-name="Layer 1" xmlns="http://www.w3.org/2000/svg" xmlns:xlink="http://www.w3.org/1999/xlink" viewBox="0 0 659.36 404.04"><defs><style>.cls-1{fill:#e8f5f6;}.cls-2,.cls-3,.cls-8,.cls-9{fill:none;stroke-miterlimit:10;}.cls-2,.cls-3{stroke:#3e4649;}.cls-3{stroke-dasharray:5 3;}.cls-4{fill:#3e4649;}.cls-5{fill:url(#linear-gradient);}.cls-6{fill:#b3d7d8;}.cls-7{fill:#d3eded;}.cls-8,.cls-9{stroke:#57868f;}.cls-8{stroke-dasharray:5 3;}.cls-10{fill:#57868f;}</style><linearGradient id="linear-gradient" x1="185.08" y1="272.21" x2="819.38" y2="446.93" gradientUnits="userSpaceOnUse"><stop offset="0" stop-color="#93b4b7"/><stop offset="0.48" stop-color="#91b2b5"/><stop offset="0.66" stop-color="#8cacae"/><stop offset="0.78" stop-color="#83a0a3"/><stop offset="0.88" stop-color="#759092"/><stop offset="0.96" stop-color="#647b7c"/><stop offset="1" stop-color="#5a7070"/></linearGradient></defs><rect class="cls-1" width="659.36" height="404.01"/><line class="cls-2" x1="46.25" y1="235.1" x2="48.66" y2="234.44"/><line class="cls-3" x1="51.55" y1="233.65" x2="597.79" y2="84.07"/><line class="cls-2" x1="599.23" y1="83.67" x2="601.65" y2="83.01"/><polygon class="cls-4" points="54.14 225.64 57.93 239.52 44.06 235.77 54.14 225.64"/><polygon class="cls-4" points="593.24 92.98 589.45 79.09 603.32 82.84 593.24 92.98"/><polygon class="cls-5" points="659.28 320.42 659.2 320.42 659.2 303.76 659.2 287.08 659.2 270.41 659.2 253.74 659.2 237.07 659.2 220.4 599.39 220.4 599.39 237.07 539.59 237.07 539.59 253.74 479.79 253.74 479.79 270.41 419.98 270.41 419.98 287.08 360.18 287.08 360.18 303.76 300.38 303.76 300.38 320.42 240.66 320.42 240.66 336.44 180.77 336.44 180.77 353.11 120.97 353.11 120.97 369.78 61.17 369.78 61.17 386.45 1.36 386.45 1.36 404.01 659.2 404.01 659.2 386.45 659.2 369.78 659.2 353.11 659.2 337.09 659.28 337.09 659.28 320.42"/><polygon class="cls-6" points="478.87 253.99 506.18 261.98 566.25 261.98 538.67 253.99 478.87 253.99"/><polygon class="cls-6" points="419.07 270.68 446.38 278.66 506.45 278.66 478.87 270.68 419.07 270.68"/><polygon class="cls-6" points="359.21 287.37 386.53 295.35 446.6 295.35 419.02 287.37 359.21 287.37"/><polygon class="cls-6" points="299.7 304.06 327.01 312.04 387.08 312.04 359.5 304.06 299.7 304.06"/><polygon class="cls-6" points="239.74 320.75 267.05 328.73 327.12 328.73 299.54 320.75 239.74 320.75"/><polygon class="cls-6" points="179.85 337.35 207.17 345.34 267.24 345.34 239.66 337.35 179.85 337.35"/><polygon class="cls-6" points="120.04 353.97 147.35 361.95 207.42 361.95 179.84 353.97 120.04 353.97"/><polygon class="cls-6" points="60.15 370.57 87.46 378.56 147.54 378.56 119.95 370.57 60.15 370.57"/><polygon class="cls-6" points="0.3 387.18 27.61 395.16 87.68 395.16 60.1 387.18 0.3 387.18"/><polygon class="cls-6" points="538.67 237.3 565.98 245.29 626.06 245.29 598.48 237.3 538.67 237.3"/><polygon class="cls-6" points="598.48 220.65 625.79 228.63 659.36 228.63 659.36 220.65 598.48 220.65"/><polygon class="cls-7" points="446.38 278.66 446.6 295.35 419.02 287.37 419.07 270.68 446.38 278.66"/><polygon class="cls-7" points="506.23 261.98 506.45 278.66 478.87 270.68 478.92 253.99 506.23 261.98"/><polygon class="cls-7" points="566.03 245.29 566.25 261.98 538.67 253.99 538.72 237.3 566.03 245.29"/><polygon class="cls-7" points="625.84 228.63 626.06 245.32 598.48 237.34 598.52 220.65 625.84 228.63"/><polygon class="cls-7" points="386.57 295.35 386.8 312.04 359.21 304.06 359.26 287.37 386.57 295.35"/><polygon class="cls-7" points="326.72 312.04 326.94 328.73 299.36 320.75 299.41 304.06 326.72 312.04"/><polygon class="cls-7" points="267.1 328.73 267.32 345.42 239.74 337.44 239.79 320.75 267.1 328.73"/><polygon class="cls-7" points="207.22 345.34 207.44 362.02 179.85 354.04 179.9 337.35 207.22 345.34"/><polygon class="cls-7" points="146.53 361.95 146.75 378.64 119.17 370.66 119.22 353.97 146.53 361.95"/><polygon class="cls-7" points="87.51 378.68 87.73 395.37 60.15 387.39 60.2 370.7 87.51 378.68"/><polygon class="cls-7" points="27.81 395.16 28.03 404.04 0.45 403.87 0.49 387.18 27.81 395.16"/><line class="cls-8" x1="386.8" y1="312.04" x2="386.8" y2="404.04"/><line class="cls-8" x1="326.94" y1="328.73" x2="326.94" y2="404.04"/><line class="cls-8" x1="267.32" y1="345.42" x2="267.32" y2="404.04"/><line class="cls-8" x1="207.42" y1="361.95" x2="207.42" y2="404.04"/><line class="cls-8" x1="147.54" y1="378.64" x2="147.54" y2="404.04"/><line class="cls-8" x1="87.73" y1="395.16" x2="87.73" y2="404.04"/><line class="cls-8" x1="446.6" y1="295.35" x2="446.6" y2="405.86"/><line class="cls-8" x1="506.45" y1="279" x2="506.45" y2="405.86"/><line class="cls-8" x1="566.25" y1="261.98" x2="566.25" y2="405.86"/><line class="cls-8" x1="626.06" y1="245.32" x2="626.06" y2="404.01"/><polyline class="cls-9" points="0 386.87 59.8 386.87 59.8 370.19 119.61 370.19 119.61 353.52 179.41 353.52 179.41 336.85 239.29 336.85 239.29 320.17 299.06 320.17 299.06 303.5 358.86 303.5 358.86 286.83 418.62 286.83 418.62 270.16 478.42 270.16 478.42 253.49 538.16 253.49 538.16 236.82 598.03 236.82 598.03 220.15 659.28 220.15"/><path class="cls-10" d="M93.89,204.05l-4.46-16.71,3.55-1,3.67,13.79,6.78-1.81.78,2.93Z"/><path class="cls-10" d="M112.68,199.28a6.83,6.83,0,0,1-5.27-.41,6.71,6.71,0,0,1-3-4.36,7.41,7.41,0,0,1,.28-5.4,6,6,0,0,1,4-2.94,5.84,5.84,0,0,1,4.63.42,6,6,0,0,1,2.64,3.86l.45,1.69-8.24,2.2a3.47,3.47,0,0,0,1.5,2.09,3.22,3.22,0,0,0,2.53.22,9.75,9.75,0,0,0,2.12-.83,12.07,12.07,0,0,0,2-1.33l.72,2.69a8.17,8.17,0,0,1-1.78,1.2A11.87,11.87,0,0,1,112.68,199.28Zm-3.36-10.63a2.27,2.27,0,0,0-1.55,1.16,3.39,3.39,0,0,0-.19,2.19l4.9-1.3a3,3,0,0,0-1.21-1.82A2.37,2.37,0,0,0,109.32,188.65Z"/><path class="cls-10" d="M128.57,190.74a3.64,3.64,0,0,1-.56,3.36,7,7,0,0,1-3.81,2.11,13.25,13.25,0,0,1-2.43.45,9.36,9.36,0,0,1-2-.06l-.77-2.88a12.83,12.83,0,0,0,2.39.18,8.89,8.89,0,0,0,2.23-.27c1.26-.33,1.8-.87,1.6-1.6a.93.93,0,0,0-.43-.6,3.67,3.67,0,0,0-1-.35c-.47-.11-1.08-.22-1.85-.32a10.67,10.67,0,0,1-2.47-.57,3.37,3.37,0,0,1-1.33-.94,4.07,4.07,0,0,1-.76-1.59,3.15,3.15,0,0,1,.62-3,6.6,6.6,0,0,1,3.5-1.93,11,11,0,0,1,4.76-.2l-.39,2.8c-.71-.1-1.37-.17-2-.2a6.2,6.2,0,0,0-1.77.19c-1,.28-1.47.69-1.32,1.25a1,1,0,0,0,.71.68,13.8,13.8,0,0,0,2.45.44,10.59,10.59,0,0,1,2.5.54,3.6,3.6,0,0,1,1.35.94A3.75,3.75,0,0,1,128.57,190.74Z"/><path class="cls-10" d="M140.21,187.63a3.64,3.64,0,0,1-.57,3.36,6.9,6.9,0,0,1-3.81,2.12,13.25,13.25,0,0,1-2.43.45,9.26,9.26,0,0,1-2-.07l-.77-2.88a12.76,12.76,0,0,0,2.39.18,8.93,8.93,0,0,0,2.23-.26c1.26-.34,1.8-.87,1.6-1.6a.91.91,0,0,0-.43-.6,3.37,3.37,0,0,0-1-.35c-.47-.11-1.09-.22-1.85-.33a10.62,10.62,0,0,1-2.47-.56,3.3,3.3,0,0,1-1.33-.94,4.21,4.21,0,0,1-.76-1.59,3.14,3.14,0,0,1,.62-3,6.68,6.68,0,0,1,3.49-1.93,11,11,0,0,1,4.76-.19l-.38,2.8a19.06,19.06,0,0,0-2-.2,5.9,5.9,0,0,0-1.78.19c-1,.28-1.47.69-1.32,1.25a1,1,0,0,0,.72.68,14.11,14.11,0,0,0,2.45.43,10.41,10.41,0,0,1,2.49.55,3.45,3.45,0,0,1,1.35.94A3.78,3.78,0,0,1,140.21,187.63Z"/><path class="cls-10" d="M158.78,174.43a5.3,5.3,0,0,1-.59,4.58,7.45,7.45,0,0,1-4.41,2.7l-1.52.41,1.58,5.94-3.54.95-4.46-16.71,5.34-1.43a7.34,7.34,0,0,1,5,.08A4.93,4.93,0,0,1,158.78,174.43Zm-7.3,4.79,1.17-.32a4,4,0,0,0,2.27-1.29,2.34,2.34,0,0,0,.31-2.1,2.4,2.4,0,0,0-1.17-1.66,3.37,3.37,0,0,0-2.29,0l-1.61.43Z"/><path class="cls-10" d="M168.39,170.24a5.23,5.23,0,0,1,1.2-.21l.61,3.34a4.07,4.07,0,0,0-1.06.16,3.79,3.79,0,0,0-2.37,1.55,3.18,3.18,0,0,0-.29,2.65l1.73,6.5-3.48.93-3.41-12.78,2.64-.7,1.09,2,.17-.05a4.91,4.91,0,0,1,1.14-2.16A4.06,4.06,0,0,1,168.39,170.24Z"/><path class="cls-10" d="M170.92,166.28c-.3-1.13.18-1.87,1.44-2.21s2,.06,2.35,1.2a1.72,1.72,0,0,1-.13,1.39,2.06,2.06,0,0,1-1.31.83C172,167.83,171.22,167.43,170.92,166.28Zm7.92,15.12-3.48.93L172,169.55l3.48-.93Z"/><path class="cls-10" d="M185.54,179.61l-8.28-11.48,3.65-1,4.41,6.62a13.43,13.43,0,0,1,1.21,2.48l.07,0a11.33,11.33,0,0,1-.18-2.75l.51-7.94,3.65-1-1.46,14.08Z"/><path class="cls-10" d="M191.38,160.83c-.3-1.14.18-1.88,1.44-2.21s2.05.06,2.35,1.19a1.72,1.72,0,0,1-.13,1.39,2,2,0,0,1-1.31.83C192.47,162.37,191.68,162,191.38,160.83Zm7.92,15.11-3.48.93-3.41-12.78,3.49-.93Z"/><path class="cls-10" d="M206.45,174,203,175l-4.74-17.78,3.48-.93Z"/><path class="cls-10" d="M216,171.74a6.85,6.85,0,0,1-5.28-.41,6.67,6.67,0,0,1-3-4.36,7.36,7.36,0,0,1,.28-5.4,6,6,0,0,1,4-2.94,5.83,5.83,0,0,1,4.63.42,6.08,6.08,0,0,1,2.65,3.86l.45,1.7-8.24,2.19a3.47,3.47,0,0,0,1.5,2.09,3.22,3.22,0,0,0,2.53.22,10.49,10.49,0,0,0,2.12-.82,11.68,11.68,0,0,0,1.94-1.34l.72,2.69a8.79,8.79,0,0,1-1.77,1.21A12.75,12.75,0,0,1,216,171.74Zm-3.36-10.63a2.28,2.28,0,0,0-1.55,1.16,3.33,3.33,0,0,0-.19,2.19l4.89-1.3a3,3,0,0,0-1.2-1.82A2.37,2.37,0,0,0,212.59,161.11Z"/><path class="cls-10" d="M231.65,153.62l.47,1.78-1.86,1a3.64,3.64,0,0,1,1.06,1.78,4,4,0,0,1-.58,3.59,6.42,6.42,0,0,1-3.68,2.21l-.63.13-.53.08a1.19,1.19,0,0,0-.3,1.06c.14.5.84.58,2.12.24l2.18-.58a5.1,5.1,0,0,1,3.44.05,3.33,3.33,0,0,1,1.81,2.36,4.05,4.05,0,0,1-.94,4,10,10,0,0,1-5,2.67,7.73,7.73,0,0,1-4.33.16,3.07,3.07,0,0,1-2.11-2.24,2.8,2.8,0,0,1,.21-2.12,4.17,4.17,0,0,1,1.82-1.68,2.32,2.32,0,0,1-1.14-.5,1.84,1.84,0,0,1-.7-1,1.88,1.88,0,0,1,.1-1.33,5.08,5.08,0,0,1,1-1.28,3.61,3.61,0,0,1-2-1,4.43,4.43,0,0,1-1.19-2.11,4.16,4.16,0,0,1,.5-3.6,6.11,6.11,0,0,1,3.58-2.18,12.35,12.35,0,0,1,1.3-.24l1-.11Zm-6,17.22a1.28,1.28,0,0,0,1,.95,4,4,0,0,0,2.05-.11,7.1,7.1,0,0,0,2.8-1.29,1.66,1.66,0,0,0,.69-1.69,1,1,0,0,0-.9-.83,5.43,5.43,0,0,0-2,.24l-1.8.48a2.94,2.94,0,0,0-1.49.88A1.43,1.43,0,0,0,225.68,170.84Zm-1.51-10.74a2.75,2.75,0,0,0,.91,1.52,1.8,1.8,0,0,0,1.61.22,1.72,1.72,0,0,0,1.28-1,2.78,2.78,0,0,0,0-1.77c-.41-1.54-1.25-2.14-2.51-1.8S223.76,158.56,224.17,160.1Z"/><path class="cls-10" d="M243,164.53a6.81,6.81,0,0,1-5.28-.42,6.64,6.64,0,0,1-3-4.36,7.28,7.28,0,0,1,.28-5.39,6.74,6.74,0,0,1,8.6-2.52,6,6,0,0,1,2.65,3.86l.45,1.69-8.25,2.2a3.52,3.52,0,0,0,1.5,2.08,3.2,3.2,0,0,0,2.54.22,9.85,9.85,0,0,0,2.11-.82,10.8,10.8,0,0,0,1.95-1.34l.72,2.7a8.35,8.35,0,0,1-1.77,1.2A13.39,13.39,0,0,1,243,164.53Zm-3.37-10.64a2.31,2.31,0,0,0-1.55,1.17,3.4,3.4,0,0,0-.18,2.19l4.89-1.31a3,3,0,0,0-1.21-1.81A2.37,2.37,0,0,0,239.64,153.89Z"/><path class="cls-10" d="M390.81,120.18l-7.62-12.24-.1,0c.86,2.68,1.42,4.47,1.66,5.37l2.09,7.9-3.22.86-4.5-17,4.91-1.3,7.46,11.93.07,0,.82-14.12,4.91-1.3,4.49,17-3.36.89-2.12-8q-.15-.57-.33-1.32c-.12-.5-.42-1.83-.89-4l-.11,0-.86,14.47Z"/><path class="cls-10" d="M415.86,106.58a7.2,7.2,0,0,1-.36,5.4,6.28,6.28,0,0,1-4.19,3,6.65,6.65,0,0,1-3.51,0,5.57,5.57,0,0,1-2.82-1.77,8.31,8.31,0,0,1-1.72-3.38,7.17,7.17,0,0,1,.36-5.39,6.28,6.28,0,0,1,4.2-3,6.8,6.8,0,0,1,3.52-.06,5.64,5.64,0,0,1,2.81,1.76A8,8,0,0,1,415.86,106.58Zm-9,2.38a5.74,5.74,0,0,0,1.4,2.75,2.38,2.38,0,0,0,2.33.44,2.32,2.32,0,0,0,1.78-1.52,5.76,5.76,0,0,0-.15-3.09,5.52,5.52,0,0,0-1.4-2.73,2.76,2.76,0,0,0-4.1,1.08A5.58,5.58,0,0,0,406.88,109Z"/><path class="cls-10" d="M424.26,97.17a5.54,5.54,0,0,1,1.23-.21l.61,3.39a4.27,4.27,0,0,0-1.08.16,3.93,3.93,0,0,0-2.41,1.57,3.24,3.24,0,0,0-.3,2.69l1.75,6.62-3.54.93-3.44-13,2.68-.71,1.1,2,.18,0a5.16,5.16,0,0,1,1.16-2.19A4.15,4.15,0,0,1,424.26,97.17Z"/><path class="cls-10" d="M437.26,108.14a6.92,6.92,0,0,1-5.36-.43,6.78,6.78,0,0,1-3.06-4.44,7.4,7.4,0,0,1,.3-5.48,6,6,0,0,1,4-3,5.92,5.92,0,0,1,4.7.44,6.12,6.12,0,0,1,2.68,3.92l.46,1.72-8.38,2.22a3.46,3.46,0,0,0,1.52,2.12,3.22,3.22,0,0,0,2.57.23,10,10,0,0,0,2.15-.83,11.13,11.13,0,0,0,2-1.36l.73,2.75a8.41,8.41,0,0,1-1.81,1.21A12.66,12.66,0,0,1,437.26,108.14Zm-3.39-10.81a2.33,2.33,0,0,0-1.58,1.18,3.42,3.42,0,0,0-.19,2.22l5-1.32a3.09,3.09,0,0,0-1.22-1.84A2.4,2.4,0,0,0,433.87,97.33Z"/><path class="cls-10" d="M460.49,89.24a5.41,5.41,0,0,1-.6,4.65,7.62,7.62,0,0,1-4.5,2.74l-1.54.41,1.6,6-3.6,1-4.5-17,5.43-1.44a7.39,7.39,0,0,1,5.05.09A5,5,0,0,1,460.49,89.24Zm-7.42,4.85,1.18-.32a4.12,4.12,0,0,0,2.32-1.31,2.39,2.39,0,0,0,.32-2.13,2.46,2.46,0,0,0-1.19-1.69,3.37,3.37,0,0,0-2.33,0l-1.64.43Z"/><path class="cls-10" d="M470.26,85a5.45,5.45,0,0,1,1.23-.21l.61,3.39a4.21,4.21,0,0,0-1.08.16,3.93,3.93,0,0,0-2.41,1.57,3.26,3.26,0,0,0-.3,2.7l1.75,6.61-3.55.94-3.44-13,2.69-.71,1.1,2,.17,0a5.07,5.07,0,0,1,1.17-2.19A4.15,4.15,0,0,1,470.26,85Z"/><path class="cls-10" d="M472.84,81q-.45-1.74,1.47-2.25c1.29-.34,2.08.07,2.39,1.22a1.75,1.75,0,0,1-.14,1.42,2.09,2.09,0,0,1-1.33.84C474,82.56,473.15,82.15,472.84,81Zm8,15.37-3.54.94-3.44-13,3.55-.93Z"/><path class="cls-10" d="M487.67,94.56l-8.38-11.69,3.7-1,4.47,6.74a13.85,13.85,0,0,1,1.23,2.52h.07a11.76,11.76,0,0,1-.18-2.8l.54-8.07,3.7-1-1.51,14.3Z"/><path class="cls-10" d="M493.64,75.48c-.3-1.15.19-1.9,1.47-2.24s2.09.07,2.39,1.22a1.73,1.73,0,0,1-.14,1.41,2.09,2.09,0,0,1-1.33.84C494.75,77.05,494,76.64,493.64,75.48Zm8,15.37-3.54.94-3.44-13,3.55-.94Z"/><path class="cls-10" d="M508.93,88.93l-3.55.94L500.6,71.79l3.54-.94Z"/><path class="cls-10" d="M518.59,86.63a7,7,0,0,1-5.36-.44,6.76,6.76,0,0,1-3.07-4.43,7.53,7.53,0,0,1,.3-5.49,6,6,0,0,1,4-3,5.9,5.9,0,0,1,4.71.43,6.18,6.18,0,0,1,2.68,3.93l.45,1.72L514,81.6a3.56,3.56,0,0,0,1.52,2.12,3.23,3.23,0,0,0,2.57.22,9.59,9.59,0,0,0,2.16-.83,11.81,11.81,0,0,0,2-1.35l.72,2.74a9,9,0,0,1-1.8,1.22A13.85,13.85,0,0,1,518.59,86.63Zm-3.4-10.82A2.31,2.31,0,0,0,513.62,77a3.35,3.35,0,0,0-.2,2.22l5-1.31a3,3,0,0,0-1.22-1.85A2.4,2.4,0,0,0,515.19,75.81Z"/><path class="cls-10" d="M534.58,68.25l.47,1.8-1.89,1.06a3.67,3.67,0,0,1,1.07,1.8,4.1,4.1,0,0,1-.59,3.65,6.62,6.62,0,0,1-3.74,2.24l-.65.13-.54.08a1.23,1.23,0,0,0-.3,1.08c.13.51.85.59,2.15.25l2.21-.59a5.17,5.17,0,0,1,3.51.06,3.39,3.39,0,0,1,1.83,2.4,4.12,4.12,0,0,1-1,4,10.24,10.24,0,0,1-5.12,2.7,7.77,7.77,0,0,1-4.4.15,3.09,3.09,0,0,1-2.14-2.27,2.86,2.86,0,0,1,.21-2.16,4.35,4.35,0,0,1,1.85-1.7,2.28,2.28,0,0,1-1.15-.51,1.85,1.85,0,0,1-.71-1,1.88,1.88,0,0,1,.11-1.35,5.2,5.2,0,0,1,1-1.3,3.53,3.53,0,0,1-2-1,4.43,4.43,0,0,1-1.21-2.14,4.25,4.25,0,0,1,.51-3.66,6.21,6.21,0,0,1,3.65-2.2,10.09,10.09,0,0,1,1.32-.25l1-.11Zm-6.11,17.48a1.32,1.32,0,0,0,1,1,4,4,0,0,0,2.08-.1,7.43,7.43,0,0,0,2.85-1.31,1.65,1.65,0,0,0,.7-1.72,1,1,0,0,0-.91-.84,5.61,5.61,0,0,0-2.05.24l-1.83.49a2.85,2.85,0,0,0-1.51.89A1.47,1.47,0,0,0,528.47,85.73ZM527,74.81a2.77,2.77,0,0,0,.93,1.55,1.8,1.8,0,0,0,1.63.22,1.75,1.75,0,0,0,1.3-1,2.87,2.87,0,0,0,0-1.8q-.63-2.34-2.55-1.83C527,72.29,526.55,73.25,527,74.81Z"/><path class="cls-10" d="M546.1,79.35a6.94,6.94,0,0,1-5.37-.44,6.78,6.78,0,0,1-3.06-4.43A7.4,7.4,0,0,1,538,69a6,6,0,0,1,4-3,5.92,5.92,0,0,1,4.7.43,6.17,6.17,0,0,1,2.68,3.93l.46,1.72-8.38,2.22A3.52,3.52,0,0,0,543,76.44a3.27,3.27,0,0,0,2.57.23,10.88,10.88,0,0,0,2.16-.83,11.44,11.44,0,0,0,2-1.36l.73,2.74a8.64,8.64,0,0,1-1.8,1.22A13.14,13.14,0,0,1,546.1,79.35Zm-3.4-10.82a2.34,2.34,0,0,0-1.58,1.19,3.41,3.41,0,0,0-.19,2.22l5-1.32a3.07,3.07,0,0,0-1.22-1.85A2.44,2.44,0,0,0,542.7,68.53Z"/></svg>